<mxfile host="app.diagrams.net" agent="Mozilla/5.0 (Windows NT 10.0; Win64; x64) AppleWebKit/537.36 (KHTML, like Gecko) Chrome/135.0.0.0 Safari/537.36" version="26.2.12">
  <diagram id="dataflow" name="Data Flow">
    <mxGraphModel dx="1556" dy="935" grid="1" gridSize="10" guides="1" tooltips="1" connect="1" arrows="1" fold="1" page="1" pageScale="1" pageWidth="827" pageHeight="1169" math="0" shadow="0">
      <root>
        <mxCell id="0" />
        <mxCell id="1" parent="0" />
        <mxCell id="2" value="用户" style="shape=actor;whiteSpace=wrap;html=1;" parent="1" vertex="1">
          <mxGeometry x="50" y="200" width="60" height="80" as="geometry" />
        </mxCell>
        <mxCell id="3" value="点击查询景点" style="shape=rectangle;rounded=1;whiteSpace=wrap;html=1;" parent="1" vertex="1">
          <mxGeometry x="170" y="210" width="120" height="60" as="geometry" />
        </mxCell>
        <mxCell id="4" value="Vue3 客户端&lt;br&gt;发送 Fetch 请求" style="shape=rectangle;rounded=1;whiteSpace=wrap;html=1;" parent="1" vertex="1">
          <mxGeometry x="380" y="200" width="120" height="80" as="geometry" />
        </mxCell>
        <mxCell id="5" value="Express 服务端&lt;br&gt;处理 /attraction/query" style="shape=rectangle;rounded=1;whiteSpace=wrap;html=1;" parent="1" vertex="1">
          <mxGeometry x="600" y="200" width="120" height="80" as="geometry" />
        </mxCell>
        <mxCell id="6" value="SQL&lt;br&gt;查询 attractions 表" style="shape=cylinder;whiteSpace=wrap;html=1;" parent="1" vertex="1">
          <mxGeometry x="827" y="200" width="120" height="80" as="geometry" />
        </mxCell>
        <mxCell id="7" value="返回景点数据" style="edgeStyle=orthogonalEdgeStyle;rounded=0;html=1;jettySize=auto;" parent="1" source="6" target="5" edge="1">
          <mxGeometry relative="1" as="geometry" />
        </mxCell>
        <mxCell id="8" value="返回 JSON" style="edgeStyle=orthogonalEdgeStyle;rounded=0;html=1;jettySize=auto;" parent="1" source="5" target="4" edge="1">
          <mxGeometry relative="1" as="geometry" />
        </mxCell>
        <mxCell id="9" value="渲染列表" style="edgeStyle=orthogonalEdgeStyle;rounded=0;html=1;jettySize=auto;fontFamily=MiSans;" parent="1" source="4" target="3" edge="1">
          <mxGeometry relative="1" as="geometry" />
        </mxCell>
        <mxCell id="10" value="触发" style="edgeStyle=orthogonalEdgeStyle;rounded=0;html=1;jettySize=auto;" parent="1" source="2" target="3" edge="1">
          <mxGeometry relative="1" as="geometry" />
        </mxCell>
      </root>
    </mxGraphModel>
  </diagram>
</mxfile>
